<svg width="132" height="105" viewBox="0 0 132 105" fill="none" xmlns="http://www.w3.org/2000/svg">
<path d="M13.1448 102.532C13.1448 102.906 13.1035 103.237 13.0417 103.548C12.9798 103.859 12.8561 104.108 12.6911 104.316C12.5261 104.523 12.3199 104.689 12.0519 104.813C11.7838 104.938 11.4539 105 11.0621 105C10.6909 105 10.4022 104.938 10.1341 104.855C9.86607 104.751 9.65986 104.606 9.4949 104.44C9.32993 104.274 9.20621 104.067 9.12373 103.818C9.04124 103.59 9 103.32 9 103.051L9.78359 102.885C9.78359 103.071 9.80421 103.237 9.84545 103.403C9.88669 103.569 9.96918 103.714 10.0517 103.839C10.1548 103.963 10.2785 104.067 10.4435 104.15C10.6084 104.233 10.8146 104.274 11.0415 104.274C11.3301 104.274 11.5776 104.233 11.7426 104.129C11.9075 104.025 12.0312 103.922 12.1344 103.756C12.2168 103.611 12.2787 103.424 12.2993 103.217C12.3199 103.009 12.3406 102.802 12.3406 102.574C12.3406 102.283 12.3199 102.055 12.2993 101.889C12.2787 101.703 12.2168 101.558 12.1137 101.412C12.0106 101.288 11.8869 101.164 11.7013 101.039C11.5157 100.935 11.2889 100.811 10.9796 100.687C10.5466 100.5 10.196 100.313 9.94856 100.147C9.70111 99.9608 9.4949 99.7742 9.37117 99.5876C9.22683 99.4009 9.14435 99.1935 9.1031 98.9862C9.06186 98.7788 9.04124 98.53 9.04124 98.2811C9.04124 97.9493 9.08248 97.6382 9.16497 97.3687C9.24745 97.0783 9.37117 96.8502 9.53614 96.6429C9.70111 96.4355 9.92793 96.2903 10.1754 96.1659C10.4435 96.0415 10.7321 96 11.0827 96C11.4745 96 11.7838 96.0622 12.0519 96.1659C12.3199 96.2903 12.5055 96.4355 12.6705 96.6221C12.8355 96.8088 12.9386 97.0161 13.0004 97.2442C13.0623 97.4724 13.1035 97.6797 13.1035 97.9078L12.3199 98.0945C12.3199 97.7005 12.2168 97.3687 12.0312 97.1198C11.8457 96.871 11.5157 96.7465 11.0415 96.7465C10.7734 96.7465 10.5672 96.788 10.4022 96.8917C10.2372 96.9954 10.1135 97.1198 10.031 97.265C9.94855 97.4101 9.88669 97.576 9.84545 97.7627C9.82483 97.9493 9.80421 98.1152 9.80421 98.2811C9.80421 98.4677 9.82483 98.6544 9.86607 98.7995C9.90731 98.9447 9.96917 99.0899 10.0723 99.235C10.1754 99.3802 10.3403 99.5046 10.5466 99.629C10.7528 99.7535 11.0415 99.8986 11.392 100.044C11.7838 100.189 12.0931 100.355 12.3199 100.521C12.5468 100.687 12.7117 100.873 12.8355 101.06C12.9592 101.267 13.021 101.475 13.0623 101.724C13.1241 101.931 13.1448 102.221 13.1448 102.532Z" fill="#1C1CA6"/>
<path d="M16.2791 104.896H17.0215V98.6336H16.2791V104.896ZM16.2791 97.1198H17.0627V96.3111H16.2791V97.1198Z" fill="#1C1CA6"/>
<path d="M21.1044 99.2972H21.125C21.2693 99.0691 21.4549 98.8825 21.7024 98.7581C21.9498 98.6336 22.1973 98.5714 22.486 98.5714C22.754 98.5714 22.9809 98.6129 23.1665 98.6959C23.352 98.7788 23.4964 98.9032 23.6201 99.0484C23.7438 99.1936 23.8263 99.3595 23.8882 99.5668C23.95 99.7742 23.9707 100.002 23.9707 100.23V104.917H23.1458V100.459C23.1458 100.127 23.084 99.8779 22.9396 99.6705C22.7953 99.4631 22.5478 99.3595 22.1973 99.3595C21.8467 99.3595 21.5787 99.4839 21.3724 99.712C21.1869 99.9401 21.0838 100.23 21.0838 100.562V104.917H20.3002V98.6544H21.1044V99.2972Z" fill="#1C1CA6"/>
<path d="M28.4454 98.6336H29.4764V99.2558H28.4454V103.32C28.4454 103.631 28.5072 103.859 28.6516 103.984C28.7959 104.108 29.0021 104.191 29.3114 104.191H29.497V104.896H29.064C28.5072 104.896 28.1154 104.751 27.8886 104.482C27.6618 104.212 27.5587 103.88 27.5587 103.486V99.2765H26.7751V98.6544H27.5793V97.0369H28.466V98.6336H28.4454Z" fill="#1C1CA6"/>
<path d="M33.848 101.869C33.5181 101.869 33.25 101.972 33.0232 102.159C32.7963 102.346 32.6726 102.677 32.6726 103.154C32.6726 103.486 32.7551 103.735 32.8994 103.942C33.0438 104.15 33.3119 104.233 33.6624 104.233C34.013 104.233 34.281 104.129 34.4872 103.942C34.6935 103.756 34.7966 103.486 34.7966 103.134V101.869H33.848ZM32.0334 99.7327C32.1365 99.3594 32.3427 99.0899 32.652 98.8825C32.9613 98.6751 33.3325 98.5714 33.8068 98.5714C34.3635 98.5714 34.7966 98.6959 35.1059 98.9447C35.4152 99.1936 35.5595 99.629 35.5595 100.272V104.917H34.7759V104.357H34.7553C34.5697 104.627 34.3429 104.793 34.1161 104.876C33.8686 104.959 33.6212 105 33.3531 105C33.085 105 32.8376 104.959 32.652 104.855C32.4664 104.751 32.3221 104.627 32.1983 104.461C32.0746 104.295 31.9921 104.108 31.9509 103.901C31.9096 103.694 31.8684 103.465 31.8684 103.237C31.8684 103.009 31.889 102.76 31.9509 102.532C32.0127 102.304 32.0952 102.076 32.2396 101.889C32.3839 101.703 32.5695 101.537 32.7757 101.412C33.0025 101.288 33.2912 101.226 33.6418 101.226H34.7759V100.313C34.7759 100.023 34.7141 99.7742 34.5697 99.5876C34.4254 99.4009 34.1573 99.318 33.7655 99.318C33.5799 99.318 33.3737 99.3802 33.1675 99.4839C32.9613 99.5876 32.8376 99.7742 32.7757 100.002L32.0334 99.7327Z" fill="#1C1CA6"/>
<path d="M42.0138 101.827H38.8176V102.636H42.0138V101.827Z" fill="#1C1CA6"/>
<path d="M45.7462 103.217C45.7462 103.548 45.8287 103.797 45.9936 103.984C46.1586 104.171 46.406 104.274 46.7153 104.274C47.0865 104.274 47.3546 104.191 47.4989 104.005C47.6433 103.818 47.7051 103.569 47.7051 103.217C47.7051 103.051 47.6845 102.906 47.6639 102.802C47.6433 102.677 47.5814 102.574 47.5196 102.491C47.4371 102.387 47.334 102.304 47.1896 102.242C47.0453 102.159 46.8597 102.076 46.6535 101.993C46.3236 101.869 46.0349 101.744 45.8287 101.599C45.6224 101.475 45.4575 101.329 45.3338 101.184C45.21 101.039 45.1275 100.894 45.0863 100.728C45.0451 100.562 45.0244 100.396 45.0244 100.21C45.0244 99.7327 45.1688 99.318 45.4575 99.0069C45.7462 98.6959 46.1792 98.5507 46.7772 98.5507C47.3752 98.5507 47.8082 98.6958 48.0969 98.9862C48.3856 99.2765 48.53 99.6912 48.53 100.21L47.7051 100.334C47.7258 99.9816 47.6433 99.712 47.4577 99.5461C47.2721 99.3802 47.0453 99.2765 46.7772 99.2765C46.5916 99.2765 46.4267 99.2972 46.3029 99.3595C46.1792 99.4217 46.0761 99.4839 46.0142 99.5668C45.9524 99.6498 45.8905 99.7535 45.8699 99.8571C45.8493 99.9608 45.8287 100.085 45.8287 100.189C45.8287 100.313 45.8493 100.417 45.8699 100.521C45.8905 100.624 45.9524 100.707 46.0555 100.811C46.138 100.894 46.2617 100.998 46.4267 101.081C46.5916 101.164 46.7978 101.247 47.0453 101.329C47.3546 101.454 47.6227 101.578 47.8082 101.703C47.9938 101.827 48.1382 101.972 48.2413 102.118C48.3444 102.263 48.4062 102.429 48.4269 102.615C48.4475 102.802 48.4681 102.988 48.4681 103.196C48.4681 103.714 48.3238 104.15 48.0557 104.482C47.7876 104.813 47.334 104.979 46.7153 104.979C45.54 104.979 44.942 104.44 44.9213 103.341L45.7462 103.217Z" fill="#1C1CA6"/>
<path d="M52.2623 99.8779C52.2005 100.023 52.1798 100.21 52.1592 100.438C52.1386 100.687 52.1386 100.977 52.118 101.329H54.1801V100.666C54.1801 100.479 54.1594 100.313 54.1388 100.147C54.1182 99.9816 54.077 99.8364 53.9945 99.712C53.912 99.5876 53.8089 99.4839 53.6852 99.4009C53.5614 99.318 53.3758 99.2765 53.1696 99.2765C52.9841 99.2765 52.7985 99.318 52.6335 99.4009C52.4892 99.4839 52.3654 99.6498 52.2623 99.8779ZM53.2521 98.5714C53.7676 98.5714 54.1801 98.6959 54.4687 98.9447C54.7574 99.1936 54.9224 99.5461 54.9843 100.002C54.9843 100.106 55.0049 100.189 55.0049 100.272C55.0049 100.376 55.0049 100.459 55.0049 100.562V101.952H52.1386C52.1386 102.035 52.1386 102.118 52.1386 102.2C52.1386 102.283 52.1386 102.366 52.1386 102.449C52.1386 102.677 52.1386 102.885 52.1592 103.113C52.1798 103.341 52.2005 103.507 52.2417 103.631C52.3861 104.067 52.6954 104.274 53.1903 104.274C53.5202 104.274 53.7676 104.171 53.912 103.984C54.077 103.797 54.1594 103.548 54.1801 103.217L54.9843 103.362C54.943 103.88 54.7574 104.274 54.4481 104.544C54.1388 104.813 53.7058 104.959 53.149 104.959C52.881 104.959 52.6541 104.917 52.4479 104.855C52.2417 104.793 52.0767 104.71 51.953 104.585C51.8087 104.482 51.7056 104.357 51.6231 104.212C51.5406 104.067 51.4787 103.922 51.4375 103.777C51.4169 103.673 51.3963 103.548 51.3756 103.382C51.355 103.217 51.355 103.051 51.3344 102.864C51.3344 102.677 51.3344 102.491 51.3138 102.304C51.3138 102.118 51.3138 101.931 51.3138 101.765C51.3138 101.537 51.3138 101.329 51.3138 101.101C51.3138 100.873 51.3344 100.666 51.355 100.459C51.3756 100.251 51.3963 100.065 51.4169 99.8986C51.4375 99.7327 51.4787 99.5876 51.52 99.4839C51.6437 99.1728 51.8293 98.924 52.0974 98.7373C52.3861 98.6544 52.7572 98.5714 53.2521 98.5714Z" fill="#1C1CA6"/>
<path d="M63.315 99.8779C63.2532 100.023 63.2326 100.21 63.2119 100.438C63.1913 100.687 63.1913 100.977 63.1707 101.329H65.2328V100.666C65.2328 100.479 65.2122 100.313 65.1915 100.147C65.1709 99.9816 65.1297 99.8364 65.0472 99.712C64.9647 99.5876 64.8616 99.4839 64.7379 99.4009C64.6142 99.318 64.4286 99.2765 64.2224 99.2765C64.0368 99.2765 63.8512 99.318 63.6862 99.4009C63.5419 99.4839 63.4181 99.6498 63.315 99.8779ZM64.3048 98.5714C64.8204 98.5714 65.2328 98.6959 65.5215 98.9447C65.8102 99.1936 65.9751 99.5461 66.037 100.002C66.037 100.106 66.0576 100.189 66.0576 100.272C66.0576 100.376 66.0576 100.459 66.0576 100.562V101.952H63.1913C63.1913 102.035 63.1913 102.118 63.1913 102.2C63.1913 102.283 63.1913 102.366 63.1913 102.449C63.1913 102.677 63.1913 102.885 63.2119 103.113C63.2326 103.341 63.2532 103.507 63.2944 103.631C63.4388 104.067 63.7481 104.274 64.243 104.274C64.5729 104.274 64.8204 104.171 64.9647 103.984C65.1297 103.797 65.2122 103.548 65.2328 103.217L66.037 103.362C65.9957 103.88 65.8102 104.274 65.5008 104.544C65.1915 104.813 64.7585 104.959 64.2017 104.959C63.9337 104.959 63.7068 104.917 63.5006 104.855C63.315 104.793 63.1501 104.71 63.0057 104.585C62.8614 104.482 62.7583 104.357 62.6758 104.212C62.5933 104.067 62.5315 103.922 62.4902 103.777C62.4696 103.673 62.449 103.548 62.4284 103.382C62.4077 103.217 62.4077 103.051 62.3871 102.864C62.3871 102.677 62.3871 102.491 62.3665 102.304C62.3665 102.118 62.3665 101.931 62.3665 101.765C62.3665 101.537 62.3665 101.329 62.3665 101.101C62.3665 100.873 62.3871 100.666 62.4077 100.459C62.4284 100.251 62.449 100.065 62.4696 99.8986C62.4902 99.7327 62.5315 99.5876 62.5727 99.4839C62.6964 99.1728 62.882 98.924 63.1501 98.7373C63.4388 98.6544 63.8099 98.5714 64.3048 98.5714Z" fill="#1C1CA6"/>
<path d="M74.7183 104.896V100.438C74.7183 100.147 74.6565 99.8779 74.5121 99.6705C74.3678 99.4631 74.1203 99.3387 73.7698 99.3387C73.4605 99.3387 73.2336 99.4424 73.048 99.6705C72.8625 99.8779 72.78 100.147 72.7594 100.479V104.896H71.9758V100.438C71.9758 100.147 71.9139 99.8779 71.7696 99.6705C71.6252 99.4631 71.3984 99.3387 71.0478 99.3387C70.7179 99.3387 70.4498 99.4631 70.2849 99.6912C70.0993 99.9194 70.0168 100.21 70.0168 100.541V104.896H69.2332V98.6336H70.0374V99.2972H70.058C70.2024 99.0691 70.388 98.8825 70.5736 98.7581C70.7798 98.6336 71.0066 98.5714 71.3159 98.5714C71.6665 98.5714 71.9345 98.6336 72.1613 98.7788C72.3676 98.924 72.5325 99.1106 72.6356 99.3595C72.8006 99.1106 73.0068 98.924 73.2542 98.7581C73.5017 98.6129 73.7698 98.53 74.0791 98.5507C74.3471 98.5507 74.5534 98.5922 74.7389 98.6751C74.9245 98.7581 75.0895 98.8825 75.1926 99.0276C75.3163 99.1728 75.3988 99.3594 75.4607 99.5461C75.5225 99.7535 75.5432 99.9608 75.5432 100.21V104.896H74.7183Z" fill="#1C1CA6"/>
<path d="M84.9462 98.5714C85.5442 98.5714 85.9772 98.7166 86.2453 99.0276C86.5134 99.3387 86.6577 99.7742 86.6577 100.313L85.8329 100.438V100.417C85.8741 100.085 85.7917 99.8157 85.6267 99.5876C85.4411 99.3802 85.2143 99.2558 84.905 99.2558C84.6988 99.2558 84.5338 99.2972 84.3688 99.4009C84.2039 99.5046 84.0801 99.6498 83.9977 99.8571C83.9358 100.023 83.8946 100.293 83.8739 100.645C83.8533 101.018 83.8533 101.454 83.8327 101.972C83.8327 102.304 83.8533 102.615 83.8533 102.926C83.8533 103.237 83.8946 103.465 83.9358 103.611C83.9977 103.818 84.1214 103.984 84.2657 104.088C84.4307 104.212 84.6163 104.274 84.8637 104.274C85.173 104.274 85.3999 104.191 85.5855 103.984C85.7504 103.797 85.8329 103.507 85.8329 103.134L86.6577 103.279C86.6371 104.419 86.0185 104.979 84.8431 104.979C84.575 104.979 84.3482 104.959 84.1626 104.876C83.977 104.813 83.8121 104.73 83.6677 104.606C83.544 104.502 83.4203 104.378 83.3378 104.233C83.2553 104.088 83.1934 103.942 83.1728 103.797C83.1522 103.694 83.1316 103.569 83.111 103.403C83.0903 103.237 83.0903 103.071 83.0697 102.885C83.0697 102.698 83.0697 102.512 83.0491 102.325C83.0491 102.138 83.0491 101.952 83.0491 101.786C83.0491 101.558 83.0491 101.35 83.0491 101.122C83.0491 100.894 83.0697 100.687 83.0903 100.479C83.111 100.272 83.1316 100.085 83.1522 99.9194C83.1728 99.7535 83.2141 99.629 83.2553 99.5253C83.3584 99.2143 83.5646 98.9862 83.8327 98.7995C84.1214 98.6544 84.4719 98.5714 84.9462 98.5714Z" fill="#1C1CA6"/>
<path d="M91.2974 101.869C90.9675 101.869 90.6994 101.972 90.4726 102.159C90.2457 102.346 90.122 102.677 90.122 103.154C90.122 103.486 90.2045 103.735 90.3488 103.942C90.4932 104.15 90.7613 104.233 91.1118 104.233C91.4624 104.233 91.7304 104.129 91.9366 103.942C92.1429 103.756 92.246 103.486 92.246 103.134V101.869H91.2974ZM89.4828 99.7327C89.5859 99.3594 89.7921 99.0899 90.1014 98.8825C90.4107 98.6751 90.7819 98.5714 91.2562 98.5714C91.8129 98.5714 92.246 98.6959 92.5553 98.9447C92.8646 99.1936 93.0089 99.629 93.0089 100.272V104.917H92.2047V104.357H92.1841C91.9985 104.627 91.7717 104.793 91.5448 104.876C91.2974 104.959 91.0499 105 90.7819 105C90.5138 105 90.2664 104.959 90.0808 104.855C89.8952 104.751 89.7508 104.627 89.6271 104.461C89.5034 104.295 89.4209 104.108 89.3797 103.901C89.3384 103.694 89.2972 103.465 89.2972 103.237C89.2972 103.009 89.3178 102.76 89.3797 102.532C89.4415 102.304 89.524 102.076 89.6684 101.889C89.8127 101.703 89.9983 101.537 90.2045 101.412C90.4313 101.288 90.72 101.226 91.0706 101.226H92.2047V100.313C92.2047 100.023 92.1429 99.7742 91.9985 99.5876C91.8542 99.4009 91.5861 99.318 91.1943 99.318C91.0087 99.318 90.8025 99.3802 90.5963 99.4839C90.3901 99.5876 90.2664 99.7742 90.2045 100.002L89.4828 99.7327Z" fill="#1C1CA6"/>
<path d="M96.8238 103.217C96.8238 103.548 96.9062 103.797 97.0712 103.984C97.2362 104.171 97.4836 104.274 97.7929 104.274C98.1641 104.274 98.4322 104.191 98.5765 104.005C98.7209 103.818 98.7827 103.569 98.7827 103.217C98.7827 103.051 98.7621 102.906 98.7415 102.802C98.7209 102.677 98.659 102.574 98.5765 102.491C98.494 102.387 98.3909 102.304 98.2466 102.242C98.1022 102.159 97.9167 102.076 97.7105 101.993C97.3805 101.869 97.0918 101.744 96.8856 101.599C96.6794 101.475 96.5144 101.329 96.3907 101.184C96.267 101.039 96.1845 100.894 96.1433 100.728C96.102 100.562 96.0814 100.396 96.0814 100.21C96.0814 99.7327 96.2258 99.318 96.5145 99.0069C96.8031 98.6959 97.2362 98.5507 97.8342 98.5507C98.4322 98.5507 98.8652 98.6958 99.1539 98.9862C99.4426 99.2765 99.5869 99.6912 99.5869 100.21L98.7621 100.334C98.7827 99.9816 98.7002 99.712 98.5147 99.5461C98.3291 99.3802 98.1022 99.2765 97.8342 99.2765C97.6486 99.2765 97.4836 99.2972 97.3599 99.3595C97.2362 99.4217 97.1331 99.4839 97.0712 99.5668C97.0093 99.6498 96.9475 99.7535 96.9269 99.8571C96.9062 99.9608 96.8856 100.085 96.8856 100.189C96.8856 100.313 96.9062 100.417 96.9269 100.521C96.9475 100.624 97.0093 100.707 97.1124 100.811C97.1949 100.894 97.3187 100.998 97.4836 101.081C97.6486 101.164 97.8548 101.247 98.1022 101.329C98.4116 101.454 98.6796 101.578 98.8652 101.703C99.0508 101.827 99.1952 101.972 99.2983 102.118C99.4014 102.263 99.4632 102.429 99.4838 102.615C99.5045 102.802 99.5251 102.988 99.5251 103.196C99.5251 103.714 99.3807 104.15 99.1333 104.482C98.8652 104.813 98.4116 104.979 97.7929 104.979C96.6175 104.979 96.0196 104.44 95.9989 103.341L96.8238 103.217Z" fill="#1C1CA6"/>
<path d="M104.268 101.869C103.938 101.869 103.67 101.972 103.443 102.159C103.216 102.346 103.092 102.677 103.092 103.154C103.092 103.486 103.175 103.735 103.319 103.942C103.464 104.15 103.732 104.233 104.082 104.233C104.433 104.233 104.701 104.129 104.907 103.942C105.113 103.756 105.216 103.486 105.216 103.134V101.869H104.268ZM102.474 99.7327C102.577 99.3594 102.783 99.0899 103.092 98.8825C103.402 98.6751 103.773 98.5714 104.247 98.5714C104.804 98.5714 105.237 98.6959 105.546 98.9447C105.856 99.1936 106 99.629 106 100.272V104.917H105.196V104.357H105.175C104.99 104.627 104.763 104.793 104.536 104.876C104.288 104.959 104.041 105 103.773 105C103.505 105 103.257 104.959 103.072 104.855C102.886 104.751 102.742 104.627 102.618 104.461C102.494 104.295 102.412 104.108 102.371 103.901C102.329 103.694 102.288 103.465 102.288 103.237C102.288 103.009 102.309 102.76 102.371 102.532C102.433 102.304 102.515 102.076 102.659 101.889C102.804 101.703 102.989 101.537 103.196 101.412C103.422 101.288 103.711 101.226 104.062 101.226H105.196V100.313C105.196 100.023 105.134 99.7742 104.99 99.5876C104.845 99.4009 104.577 99.318 104.185 99.318C104 99.318 103.794 99.3802 103.587 99.4839C103.381 99.5876 103.257 99.7742 103.196 100.002L102.474 99.7327Z" fill="#1C1CA6"/>
<path d="M13.2308 92.8689V86.8387H10.0219V92.8689H9V80.1092H10.0219V85.8555H13.2308V80.1092H14.2527V92.8689H13.2308Z" fill="#1C1CA6"/>
<path d="M22.9187 83.0807C22.9187 82.8185 22.8982 82.5563 22.8369 82.316C22.7756 82.0756 22.6938 81.8571 22.5712 81.6605C22.4486 81.4639 22.2851 81.3109 22.0807 81.2017C21.8763 81.0924 21.631 81.0269 21.3245 81.0269C20.9974 81.0269 20.7317 81.0924 20.5274 81.2454C20.323 81.3983 20.139 81.595 20.0164 81.8134C19.8938 82.0538 19.812 82.2941 19.7507 82.5781C19.7098 82.8622 19.6689 83.1025 19.6689 83.3647V90.0067C19.6689 90.2471 19.6894 90.4874 19.7711 90.7277C19.8324 90.9681 19.9346 91.1647 20.0573 91.3395C20.1799 91.5143 20.3434 91.6672 20.5682 91.7765C20.7726 91.8857 21.0179 91.9513 21.304 91.9513C21.8967 91.9513 22.3055 91.7546 22.5508 91.3395C22.796 90.9244 22.9187 90.4218 22.9187 89.8319V83.0807ZM23.9406 89.7227C23.9406 90.7933 23.7158 91.6235 23.2866 92.1697C22.8369 92.716 22.1829 93 21.2836 93C20.3843 93 19.7303 92.7378 19.301 92.2134C18.8718 91.6891 18.647 90.9462 18.647 90.0067V83.2992C18.647 82.8403 18.6879 82.4252 18.7901 82.0101C18.8718 81.6168 19.0353 81.2454 19.2397 80.9613C19.4441 80.6555 19.7098 80.437 20.0573 80.2622C20.4047 80.0874 20.8135 80 21.304 80C21.815 80 22.2238 80.0655 22.5712 80.2185C22.9187 80.3714 23.1844 80.5899 23.3888 80.8739C23.5931 81.158 23.7362 81.5076 23.818 81.9008C23.8997 82.2941 23.961 82.7311 23.961 83.2336V89.7227H23.9406Z" fill="#1C1CA6"/>
<path d="M34.6709 83.2336C34.6095 83.3866 34.5278 83.605 34.4256 83.8891C34.3234 84.1731 34.2212 84.479 34.119 84.8067C34.0168 85.1345 33.9146 85.4185 33.792 85.7244C33.6898 86.0084 33.608 86.2269 33.5672 86.3798C33.5467 86.4235 33.5263 86.5328 33.465 86.7076C33.4037 86.8823 33.3219 87.1008 33.2402 87.3412C33.1584 87.5815 33.0562 87.8437 32.954 88.1277C32.8518 88.4118 32.7496 88.6739 32.6679 88.9143C32.5861 89.1546 32.5044 89.3731 32.4226 89.5479C32.3613 89.7227 32.3204 89.8319 32.3 89.8756H31.7277C31.6664 89.7227 31.5846 89.4824 31.462 89.1546C31.3394 88.8269 31.2167 88.4992 31.0941 88.1496C30.9715 87.8 30.8488 87.4504 30.7262 87.1445C30.6036 86.8168 30.5218 86.5983 30.4605 86.4235L29.3773 83.2992H29.3159V92.9126H28.294V80.1529H29.3364C29.3977 80.3277 29.4999 80.6118 29.643 81.005C29.786 81.3765 29.9087 81.7916 30.0722 82.2067C30.2152 82.6219 30.3583 83.037 30.5014 83.4084C30.6445 83.7798 30.7262 84.0639 30.7875 84.2605L32.0138 87.8218H32.0547C32.116 87.6471 32.1978 87.4067 32.3 87.079C32.4022 86.7513 32.5248 86.4017 32.6679 86.0303C32.7905 85.6588 32.9131 85.3092 33.0358 84.9815C33.1584 84.6538 33.2402 84.3916 33.3015 84.2168C33.3219 84.1731 33.3628 84.0639 33.4241 83.8454C33.5059 83.6487 33.5876 83.3866 33.6898 83.1025C33.792 82.8185 33.8942 82.5126 34.0168 82.1849C34.1395 81.8571 34.2416 81.5513 34.3438 81.2672C34.446 80.9832 34.5278 80.7429 34.5891 80.5462C34.6709 80.3496 34.7117 80.2185 34.7117 80.1748H35.7745V92.9344H34.7526V83.2992H34.6709V83.2336Z" fill="#1C1CA6"/>
<path d="M40.2301 92.8689V80.1092H45.115V81.1361H41.2521V85.8555H44.6244V86.8824H41.2521V91.842H45.115V92.8689H40.2301Z" fill="#1C1CA6"/>
<path d="M57.2759 80C58.0935 80 58.7271 80.2403 59.1767 80.7429C59.6264 81.2235 59.8512 81.9227 59.8512 82.8185L58.8088 83.037C58.8293 82.3815 58.6862 81.879 58.4205 81.5513C58.1548 81.2235 57.7665 81.0487 57.2555 81.0487C56.9693 81.0487 56.7241 81.1143 56.5197 81.2235C56.3153 81.3546 56.1518 81.5076 56.0496 81.7042C55.927 81.9008 55.8452 82.1412 55.7839 82.4034C55.7226 82.6655 55.7022 82.9277 55.7022 83.1899V90.0067C55.7022 90.2471 55.7226 90.4874 55.7839 90.7277C55.8452 90.9681 55.927 91.1866 56.0496 91.3613C56.1722 91.5361 56.3357 91.6891 56.5197 91.7983C56.7241 91.9076 56.9489 91.9731 57.2555 91.9731C57.7051 91.9731 58.0935 91.8202 58.3592 91.5143C58.6453 91.2084 58.7884 90.684 58.7884 89.9849L59.8512 90.1815C59.8307 91.121 59.5855 91.8202 59.1154 92.3008C58.6453 92.7815 58.0322 93 57.2555 93C56.3971 93 55.7635 92.7378 55.3138 92.2353C54.8642 91.7328 54.6598 90.9899 54.6598 90.0504V83.321C54.6598 82.8622 54.7007 82.4471 54.8029 82.0319C54.8846 81.6168 55.0277 81.2672 55.2321 80.9832C55.4364 80.6773 55.7022 80.437 56.0292 80.2622C56.3766 80.0874 56.7854 80 57.2759 80Z" fill="#1C1CA6"/>
<path d="M63.9185 92.8689V80.1092H68.8033V81.1361H64.9404V85.8555H68.3128V86.8824H64.9404V91.842H68.8033V92.8689H63.9185Z" fill="#1C1CA6"/>
<path d="M73.6472 92.8689H72.6253V80.1092H73.6063C73.6677 80.284 73.7699 80.5462 73.8925 80.8958C74.0151 81.2454 74.1582 81.6168 74.3217 82.0319C74.4852 82.4471 74.6487 82.884 74.8327 83.3429C75.0166 83.8017 75.1801 84.2387 75.3436 84.6538C75.5071 85.0689 75.6502 85.4622 75.7728 85.7899C75.8955 86.1395 75.9977 86.4017 76.0794 86.5765L77.2649 89.7664H77.3262V80.0655H78.3481V92.8252H77.367C77.3057 92.6504 77.2035 92.3882 77.0809 92.0387C76.9583 91.7109 76.8152 91.3176 76.6517 90.9025C76.4882 90.4874 76.3247 90.0504 76.1407 89.5916C75.9568 89.1328 75.7933 88.6958 75.6298 88.2807C75.4663 87.8655 75.3232 87.4941 75.1801 87.1445C75.037 86.8168 74.9349 86.5546 74.8735 86.358L73.6881 83.1681H73.6472V92.8689Z" fill="#1C1CA6"/>
<path d="M85.0928 81.1361V92.8689H84.0505V81.1361H81.9453V80.1092H87.198V81.1361H85.0928Z" fill="#1C1CA6"/>
<path d="M90.8565 92.8689V80.1092H95.7413V81.1361H91.8784V85.8555H95.2508V86.8824H91.8784V91.842H95.7413V92.8689H90.8565Z" fill="#1C1CA6"/>
<path d="M100.626 86.1176H101.914C102.629 86.1176 103.14 85.8992 103.426 85.484C103.712 85.0689 103.855 84.4353 103.855 83.605C103.855 83.2336 103.815 82.884 103.753 82.5781C103.692 82.2723 103.59 82.0101 103.426 81.7916C103.283 81.5731 103.079 81.3983 102.813 81.2891C102.547 81.1798 102.22 81.1143 101.832 81.1143H100.626V86.1176ZM102.016 80.1092C103.038 80.1092 103.774 80.4151 104.223 81.005C104.653 81.595 104.877 82.4689 104.877 83.6269C104.877 84.3916 104.755 85.0471 104.509 85.637C104.264 86.205 103.835 86.642 103.201 86.9042C103.488 87.8655 103.794 88.8706 104.101 89.8975C104.407 90.9244 104.714 91.9076 105 92.8689H103.937L102.22 87.1445H100.585V92.8689H99.5633V80.1092H102.016Z" fill="#1C1CA6"/>
<path d="M131.73 66.1917C130.249 63.6673 125.785 67.986 123.845 67.986C121.947 67.986 119.235 68.591 119.235 61.2889C119.235 54.0076 131.855 16.9545 131.855 16.9545H116.857C116.857 16.9545 109.139 44.7652 107.491 51.6083C105.843 58.4723 104.821 66.3378 104.821 70.2183C104.821 70.573 104.842 70.886 104.883 71.1989C105.301 74.7248 108.138 76.4147 112.101 79.1478C116.419 82.1104 112.977 88.0773 112.247 89.9967C111.496 91.9161 106.156 99.5312 113.436 100.866C120.716 102.202 118.171 93.2514 118.171 86.2622C118.171 79.273 124.429 75.7054 126.223 73.786C126.912 73.0557 128.059 72.1586 129.164 71.1781C131 69.5716 132.669 67.7565 131.73 66.1917Z" fill="#1C1CA6"/>
<path d="M87.1317 59.2026C87.1317 56.1148 93.0977 53.8616 93.0977 53.8616V59.0565C93.0977 59.0565 92.6387 62.6241 89.8018 62.6241C86.9648 62.6241 87.1317 60.663 87.1317 59.2026ZM92.4719 71.1989C96.1432 75.7471 103.486 74.391 103.486 74.391C103.486 74.391 103.486 73.2227 103.507 71.1989C103.507 67.8608 103.548 62.186 103.653 55.8227C103.799 45.558 112.122 27.5322 112.122 27.5322H88.9257L71.5285 47.7695H86.3599L92.3258 39.9041C92.3258 48.6875 85.3169 50.1688 80.6026 54.3414C76.2429 58.1385 74.3655 58.9522 74.3655 65.0443C74.3655 67.4644 75.325 69.6759 77.0147 71.2198C78.5583 72.6385 80.6443 73.5147 83.1058 73.5147C86.5476 73.5147 89.2594 72.1378 90.7405 71.2198C91.4914 70.7608 91.8878 70.4061 91.8878 70.4061C92.0546 70.6773 92.2633 70.9486 92.4719 71.1989Z" fill="#1C1CA6"/>
<path d="M10.9932 74.391C14.3307 74.4536 13.7049 70.6565 13.2669 68.7371C11.1183 59.1817 11.5564 51.0033 13.9553 43.8681C14.2473 42.9918 9.95016 41.594 10.3048 40.7386C10.722 39.7372 30.6014 20.7933 41.8241 14.1588C43.3468 13.2617 44.8696 12.1977 46.0378 10.9042C50.2306 6.27254 53.4639 6.71066 58.6163 10.6747C66.0841 16.4121 70.5273 26.6142 82.0002 31.7257C83.0849 30.5365 84.0653 29.389 85.15 27.7617C73.7814 22.3998 64.9785 9.98619 56.1131 1.59917C53.4013 -0.967005 51.962 -0.111612 49.5422 1.82867C33.1046 14.9934 16.521 27.9912 0 41.0515C8.05191 41.0933 9.30351 45.3494 8.84459 51.6918C8.44825 57.3249 8.65685 62.9997 8.82373 68.6327C8.90717 70.7191 7.67644 74.3284 10.9932 74.391Z" fill="#1C1CA6"/>
<path d="M81.0406 51.045H69.4634C67.5443 51.6083 64.9785 56.1148 64.9785 56.1148C64.9785 56.1148 64.2484 48.6458 67.3774 44.181C69.4843 41.1767 72.5924 43.576 72.5924 43.576L81.3327 32.7271C81.3327 32.7271 79.7056 33.0818 78.6418 33.0818C77.557 33.0818 76.3054 31.976 76.3054 31.976C72.7384 27.9703 68.8376 26.6142 66.6265 26.6142C65.1454 26.6142 63.8521 26.3638 61.5784 28.784C61.0151 29.389 60.3685 30.1609 59.6593 31.1624C55.0284 37.0667 53.297 44.3062 52.1288 51.2537C51.9411 52.422 51.7951 53.5904 51.6699 54.717C51.1484 59.2443 51.0233 63.3335 51.0233 65.8788C51.0233 68.1738 51.5865 69.9054 52.4417 71.1781C53.9437 73.4522 56.3425 74.3284 57.8653 74.5162C60.2225 74.8083 64.1233 74.2241 65.7503 73.9111C67.3983 73.6191 70.5064 75.9975 70.5064 75.9975C70.2144 74.2867 70.0892 72.7011 70.1101 71.1781C70.3187 58.1803 81.0406 51.045 81.0406 51.045Z" fill="#1C1CA6"/>
<path d="M33.0212 59.2026C33.0212 56.1148 38.9871 53.8616 38.9871 53.8616V59.0565C38.9871 59.0565 38.5491 62.6241 35.733 62.6241C32.8752 62.6241 33.0212 60.663 33.0212 59.2026ZM57.9905 27.5113C57.9905 27.5113 56.5511 27.5113 54.3817 27.5113C48.3532 27.4904 41.9909 27.4904 35.7956 27.5113C35.1698 27.5113 34.7943 27.5113 34.7943 27.5113L17.3971 47.7486H32.2702C32.2702 47.7486 32.6457 47.2479 33.2089 46.5177C33.7721 45.7875 34.5231 44.8069 35.2741 43.8264C36.2128 42.5746 37.3809 41.135 38.2362 39.9667C38.2362 42.5746 37.6521 45.4746 35.7747 47.2062C35.2741 47.7904 34.7317 48.3328 34.1476 48.8335C31.8113 50.8364 28.8701 52.2342 26.4921 54.3206C22.1323 58.1177 20.2341 58.9313 20.2341 65.0234C20.2341 67.4435 21.2354 69.655 22.9041 71.1989C24.4478 72.6176 26.5546 73.4939 29.0161 73.4939C32.4371 73.4939 35.1906 72.1169 36.6508 71.1989C37.4018 70.7399 37.7981 70.3853 37.7981 70.3853C37.965 70.6773 38.1527 70.9486 38.3822 71.1989C42.0535 75.7471 49.3962 74.391 49.3962 74.391V71.1989C49.4171 67.8608 49.4379 62.186 49.5422 55.8227C49.5631 54.8004 49.6465 53.6947 49.8134 52.5472C49.9803 51.3997 50.2097 50.1896 50.5018 48.9587C52.4417 42.3033 54.4651 35.9401 57.1561 29.4933C57.6567 28.2415 57.9905 27.5113 57.9905 27.5113Z" fill="#1C1CA6"/>
</svg>
